HIERARCHY
ROOT Hips
{
	OFFSET 0.00000 0.00000 0.00000
	CHANNELS 6 Xposition Yposition Zposition Zrotation Yrotation Xrotation 
	JOINT LHipJoint
	{
		OFFSET 0 0 0
		CHANNELS 3 Zrotation Yrotation Xrotation
		JOINT LeftUpLeg
		{
			OFFSET 2.36090 -1.39315 1.24752
			CHANNELS 3 Zrotation Yrotation Xrotation
			JOINT LeftLeg
			{
				OFFSET 2.06810 -5.68207 0.00000
				CHANNELS 3 Zrotation Yrotation Xrotation
				JOINT LeftFoot
				{
					OFFSET 2.46631 -6.77613 0.00000
					CHANNELS 3 Zrotation Yrotation Xrotation
					JOINT LeftToeBase
					{
						OFFSET 0.26031 -0.71520 1.99545
						CHANNELS 3 Zrotation Yrotation Xrotation
						End Site
						{
							OFFSET 0.00000 -0.00000 1.05957
						}
					}
				}
			}
		}
	}
	JOINT RHipJoint
	{
		OFFSET 0 0 0
		CHANNELS 3 Zrotation Yrotation Xrotation
		JOINT RightUpLeg
		{
			OFFSET -2.25243 -1.39315 1.24752
			CHANNELS 3 Zrotation Yrotation Xrotation
			JOINT RightLeg
			{
				OFFSET -2.17343 -5.97145 0.00000
				CHANNELS 3 Zrotation Yrotation Xrotation
				JOINT RightFoot
				{
					OFFSET -2.52372 -6.93386 0.00000
					CHANNELS 3 Zrotation Yrotation Xrotation
					JOINT RightToeBase
					{
						OFFSET -0.22538 -0.61923 2.11447
						CHANNELS 3 Zrotation Yrotation Xrotation
						End Site
						{
							OFFSET -0.00000 -0.00000 1.10506
						}
					}
				}
			}
		}
	}
	JOINT LowerBack
	{
		OFFSET 0 0 0
		CHANNELS 3 Zrotation Yrotation Xrotation
		JOINT Spine
		{
			OFFSET 0.01594 2.13103 0.08007
			CHANNELS 3 Zrotation Yrotation Xrotation
			JOINT Spine1
			{
				OFFSET 0.01393 2.09723 0.18338
				CHANNELS 3 Zrotation Yrotation Xrotation
				JOINT Neck
				{
					OFFSET 0 0 0
					CHANNELS 3 Zrotation Yrotation Xrotation
					JOINT Neck1
					{
						OFFSET 0.05351 1.38915 0.32494
						CHANNELS 3 Zrotation Yrotation Xrotation
						JOINT Head
						{
							OFFSET 0.00711 1.45992 -0.21666
							CHANNELS 3 Zrotation Yrotation Xrotation
							End Site
							{
								OFFSET -0.00433 1.47702 -0.11056
							}
						}
					}
				}
				JOINT LeftShoulder
				{
					OFFSET 0 0 0
					CHANNELS 3 Zrotation Yrotation Xrotation
					JOINT LeftArm
					{
						OFFSET 2.87198 0.92249 0.11132
						CHANNELS 3 Zrotation Yrotation Xrotation
						JOINT LeftForeArm
						{
							OFFSET 5.52731 -0.00000 0.00000
							CHANNELS 3 Zrotation Yrotation Xrotation
							JOINT LeftHand
							{
								OFFSET 3.11059 -0.00000 0.00000
								CHANNELS 3 Zrotation Yrotation Xrotation
								JOINT LeftFingerBase
								{
									OFFSET 0 0 0
									CHANNELS 3 Zrotation Yrotation Xrotation
									JOINT LeftHandIndex1
									{
										OFFSET 0.41963 -0.00000 0.00000
										CHANNELS 3 Zrotation Yrotation Xrotation
										End Site
										{
											OFFSET 0.33831 -0.00000 0.00000
										}
									}
								}
								JOINT LThumb
								{
									OFFSET 0 0 0
									CHANNELS 3 Zrotation Yrotation Xrotation
									End Site
									{
										OFFSET 0.34348 -0.00000 0.34348
									}
								}
							}
						}
					}
				}
				JOINT RightShoulder
				{
					OFFSET 0 0 0
					CHANNELS 3 Zrotation Yrotation Xrotation
					JOINT RightArm
					{
						OFFSET -2.94710 0.68072 0.32187
						CHANNELS 3 Zrotation Yrotation Xrotation
						JOINT RightForeArm
						{
							OFFSET -5.25396 -0.00000 -0.00000
							CHANNELS 3 Zrotation Yrotation Xrotation
							JOINT RightHand
							{
								OFFSET -3.10567 -0.00000 0.00000
								CHANNELS 3 Zrotation Yrotation Xrotation
								JOINT RightFingerBase
								{
									OFFSET 0 0 0
									CHANNELS 3 Zrotation Yrotation Xrotation
									JOINT RightHandIndex1
									{
										OFFSET -0.49868 -0.00000 0.00000
										CHANNELS 3 Zrotation Yrotation Xrotation
										End Site
										{
											OFFSET -0.40204 -0.00000 0.00000
										}
									}
								}
								JOINT RThumb
								{
									OFFSET 0 0 0
									CHANNELS 3 Zrotation Yrotation Xrotation
									End Site
									{
										OFFSET -0.40818 -0.00000 0.40818
									}
								}
							}
						}
					}
				}
			}
		}
	}
}
MOTION
Frames: 5
Frame Time: .0083333
9.4341 14.9823 21.0276 -171.1430 -12.4374 -119.3310 0.0000 0.0000 0.0000 33.9396 -6.6842 -82.0584 2.6439 10.0950 29.2848 -1.7472 22.6958 -6.6702 3.3475 -11.2373 -33.0845 0.0000 0.0000 0.0000 -3.1048 20.3922 -89.7673 -3.0521 -10.7789 31.5376 0.3520 -10.4486 -3.8397 -2.1829 9.2372 -26.5400 -4.2056 2.5766 3.9155 -1.3856 3.1764 -0.9409 0.7069 1.6481 -3.3166 -3.2763 6.8961 -42.3155 -5.8734 6.7579 -8.1439 -0.7467 1.1337 3.1544 0.0000 -0.0000 0.0000 -92.1934 -43.6099 62.2873 41.1455 -48.7341 -19.2959 -0.0000 0.0000 -74.7854 33.2707 -1.8554 -1.2170 -7.1250 0.0000 -0.0000 5.1548 27.7493 -2.1700 0.0000 -0.0000 0.0000 69.9174 51.6578 30.1930 -44.5990 50.5705 -21.9286 0.0000 -0.0000 -34.8901 -14.5602 -29.6021 7.3113 7.1250 -0.0000 -0.0000 18.8496 -59.3892 -6.7727
9.4372 15.0068 21.0140 -171.1740 -12.5833 -120.1400 0.0000 0.0000 0.0000 33.6153 -7.1312 -81.1898 2.5894 9.9987 28.9726 -1.7117 22.4853 -6.5385 3.3652 -11.2640 -33.1754 0.0000 0.0000 0.0000 -2.7858 20.4662 -88.6451 -3.0405 -10.7604 31.4760 0.3665 -10.6576 -4.0162 -2.1854 9.2421 -26.5555 -4.2431 2.5571 4.0107 -1.3897 3.1412 -0.9555 0.7211 1.6320 -3.3857 -3.2289 6.8740 -42.2242 -5.8591 6.7056 -8.1883 -0.7555 1.1160 3.1322 -0.0000 0.0000 0.0000 -91.7998 -42.8801 62.6244 41.8053 -49.1039 -19.7933 -0.0000 0.0000 -75.1009 33.3143 -1.8888 -1.2409 -7.1250 0.0000 -0.0000 5.1858 27.7083 -2.1882 -0.0000 0.0000 0.0000 70.0565 50.5798 30.2899 -45.6142 51.0659 -22.7155 0.0000 -0.0000 -35.0407 -14.6558 -29.6695 7.3760 7.1250 -0.0000 -0.0000 18.7974 -59.4747 -6.7918
9.4396 15.0339 20.9985 -171.2010 -12.7394 -121.0130 0.0000 0.0000 0.0000 33.2631 -7.6078 -80.2325 2.5298 9.8919 28.6273 -1.6749 22.2640 -6.4009 3.3845 -11.2929 -33.2742 0.0000 0.0000 0.0000 -2.4164 20.5415 -87.4067 -3.0215 -10.7298 31.3741 0.3817 -10.8751 -4.2044 -2.1819 9.2350 -26.5334 -4.2706 2.5413 4.1601 -1.3822 3.1095 -0.9528 0.7394 1.6174 -3.4676 -3.1713 6.8533 -42.1286 -5.8471 6.6539 -8.2207 -0.7665 1.0989 3.1141 -0.0000 -0.0000 0.0000 -91.4157 -42.1615 62.9718 42.4823 -49.4737 -20.3064 -0.0000 0.0000 -75.3784 33.2947 -1.8868 -1.2387 -7.1250 0.0000 -0.0000 5.1709 27.7113 -2.1814 -0.0000 -0.0000 0.0000 70.1700 49.4895 30.4014 -46.6975 51.5735 -23.5612 0.0000 -0.0000 -35.1914 -14.8101 -29.7371 7.4716 7.1250 -0.0000 -0.0000 18.6833 -59.5740 -6.7934
9.4415 15.0639 20.9812 -171.2220 -12.9025 -121.9540 0.0000 0.0000 0.0000 32.8793 -8.1119 -79.1768 2.4641 9.7724 28.2428 -1.6372 22.0347 -6.2538 3.4057 -11.3245 -33.3821 0.0000 0.0000 0.0000 -2.0107 20.6251 -86.0423 -2.9931 -10.6839 31.2211 0.3990 -11.1168 -4.3949 -2.1764 9.2243 -26.4994 -4.2942 2.5285 4.3649 -1.3592 3.0799 -0.9331 0.7694 1.6040 -3.5639 -3.1403 6.8195 -42.0374 -5.8129 6.5994 -8.2394 -0.7663 1.0834 3.0990 0.0000 0.0000 0.0000 -91.0376 -41.4406 63.3193 43.1859 -49.8482 -20.8427 -0.0000 0.0000 -75.5872 33.4110 -1.8959 -1.2502 -7.1250 0.0000 -0.0000 5.2594 27.6970 -2.2209 0.0000 0.0000 0.0000 70.2509 48.3990 30.5279 -47.8278 52.0810 -24.4498 0.0000 -0.0000 -35.3248 -14.9726 -29.8048 7.5718 7.1250 -0.0000 -0.0000 18.5601 -59.6756 -6.7919
9.4426 15.0964 20.9620 -171.2330 -13.0672 -122.9660 0.0000 0.0000 0.0000 32.4613 -8.6387 -78.0177 2.3938 9.6422 27.8257 -1.5987 21.7971 -6.1066 3.4269 -11.3560 -33.4902 0.0000 0.0000 0.0000 -1.5633 20.7182 -84.5480 -2.9549 -10.6216 31.0141 0.4181 -11.3774 -4.5891 -2.1667 9.2050 -26.4388 -4.3134 2.5216 4.6343 -1.3268 3.0552 -0.8989 0.8038 1.5931 -3.6820 -3.1449 6.7636 -41.9747 -5.7420 6.5367 -8.2227 -0.7491 1.0678 3.0949 0.0000 -0.0000 0.0000 -90.6605 -40.7233 63.6755 43.9073 -50.2218 -21.3956 -0.0000 0.0000 -75.7256 33.5259 -1.8979 -1.2570 -7.1250 0.0000 -0.0000 5.3475 27.6912 -2.2591 0.0000 -0.0000 0.0000 70.3183 47.3058 30.6684 -49.0078 52.5874 -25.3839 0.0000 -0.0000 -35.4369 -15.1588 -29.8559 7.6811 7.1250 -0.0000 -0.0000 18.3997 -59.7671 -6.7712
